<mxfile host="app.diagrams.net" agent="Mozilla/5.0 (Windows NT 10.0; Win64; x64; rv:133.0) Gecko/20100101 Firefox/133.0" version="25.0.3">
  <diagram name="Page-1" id="fLDNwV-txTs5TG_ytTZD">
    <mxGraphModel dx="4156" dy="2180" grid="1" gridSize="10" guides="1" tooltips="1" connect="1" arrows="1" fold="1" page="1" pageScale="1" pageWidth="850" pageHeight="1100" math="0" shadow="0">
      <root>
        <mxCell id="0" />
        <mxCell id="1" parent="0" />
        <mxCell id="FqAO5_lso4-B0nuIC0QS-6" value="&lt;b&gt;&lt;font style=&quot;font-size: 50px;&quot;&gt;TBPP WIFI 11 UAP-AC-Pro&lt;br&gt;&lt;/font&gt;&lt;/b&gt;" style="rounded=1;whiteSpace=wrap;html=1;shadow=0;comic=0;strokeColor=#036897;strokeWidth=2;fillColor=none;fontFamily=Verdana;fontSize=28;fontColor=#6881B3;align=center;arcSize=11;verticalAlign=top;" parent="1" vertex="1">
          <mxGeometry x="183" y="1555" width="1065" height="420" as="geometry" />
        </mxCell>
        <mxCell id="FqAO5_lso4-B0nuIC0QS-7" value="&lt;font style=&quot;font-size: 50px;&quot;&gt;TBPP WIFI 15 UAP-AC-Pro&lt;br&gt;&lt;/font&gt;" style="rounded=1;whiteSpace=wrap;html=1;shadow=0;comic=0;strokeColor=#036897;strokeWidth=2;fillColor=none;fontFamily=Verdana;fontSize=28;fontColor=#6881B3;align=center;arcSize=11;verticalAlign=top;fontStyle=1" parent="1" vertex="1">
          <mxGeometry x="180" y="1100" width="1065" height="420" as="geometry" />
        </mxCell>
        <mxCell id="FqAO5_lso4-B0nuIC0QS-8" value="&lt;div&gt;&lt;b&gt;&lt;font style=&quot;font-size: 50px;&quot;&gt;THE BALE PP CABLE NETWORK&lt;/font&gt;&lt;/b&gt;&lt;/div&gt;&lt;div&gt;&lt;b&gt;&lt;font style=&quot;font-size: 50px;&quot;&gt;&lt;br&gt;&lt;/font&gt;&lt;/b&gt;&lt;/div&gt;" style="rounded=1;whiteSpace=wrap;html=1;shadow=0;comic=0;strokeColor=#036897;strokeWidth=2;fillColor=none;fontFamily=Verdana;fontSize=28;fontColor=#6881B3;align=center;arcSize=11;verticalAlign=top;" parent="1" vertex="1">
          <mxGeometry x="183" y="240" width="1065" height="842" as="geometry" />
        </mxCell>
        <mxCell id="FqAO5_lso4-B0nuIC0QS-10" style="edgeStyle=none;html=1;labelBackgroundColor=none;endArrow=none;endFill=0;strokeWidth=2;fontFamily=Verdana;fontSize=28;fontColor=#6881B3;rounded=0;" parent="1" target="FqAO5_lso4-B0nuIC0QS-62" edge="1">
          <mxGeometry relative="1" as="geometry">
            <mxPoint x="2340" y="1056.4100000000003" as="targetPoint" />
            <mxPoint x="2270" y="1135.41" as="sourcePoint" />
          </mxGeometry>
        </mxCell>
        <mxCell id="FqAO5_lso4-B0nuIC0QS-11" value="" style="fontColor=#0066CC;verticalAlign=top;verticalLabelPosition=bottom;labelPosition=center;align=center;html=1;fillColor=#CCCCCC;strokeColor=#6881B3;gradientColor=none;gradientDirection=north;strokeWidth=2;shape=mxgraph.networks.firewall;rounded=0;shadow=0;comic=0;" parent="1" vertex="1">
          <mxGeometry x="2060" y="1060" width="100" height="100" as="geometry" />
        </mxCell>
        <mxCell id="FqAO5_lso4-B0nuIC0QS-29" value="" style="fontColor=#0066CC;verticalAlign=top;verticalLabelPosition=bottom;labelPosition=center;align=center;html=1;fillColor=#CCCCCC;strokeColor=#6881B3;gradientColor=none;gradientDirection=north;strokeWidth=2;shape=mxgraph.networks.pc;rounded=0;shadow=0;comic=0;" parent="1" vertex="1">
          <mxGeometry x="235.00000000000028" y="795" width="100" height="70" as="geometry" />
        </mxCell>
        <mxCell id="FqAO5_lso4-B0nuIC0QS-30" value="" style="fontColor=#0066CC;verticalAlign=top;verticalLabelPosition=bottom;labelPosition=center;align=center;html=1;fillColor=#CCCCCC;strokeColor=#6881B3;gradientColor=none;gradientDirection=north;strokeWidth=2;shape=mxgraph.networks.pc;rounded=0;shadow=0;comic=0;" parent="1" vertex="1">
          <mxGeometry x="375.0000000000003" y="795" width="100" height="70" as="geometry" />
        </mxCell>
        <mxCell id="FqAO5_lso4-B0nuIC0QS-31" value="" style="fontColor=#0066CC;verticalAlign=top;verticalLabelPosition=bottom;labelPosition=center;align=center;html=1;fillColor=#CCCCCC;strokeColor=#6881B3;gradientColor=none;gradientDirection=north;strokeWidth=2;shape=mxgraph.networks.pc;rounded=0;shadow=0;comic=0;" parent="1" vertex="1">
          <mxGeometry x="495.0000000000002" y="795" width="100" height="70" as="geometry" />
        </mxCell>
        <mxCell id="FqAO5_lso4-B0nuIC0QS-32" value="" style="fontColor=#0066CC;verticalAlign=top;verticalLabelPosition=bottom;labelPosition=center;align=center;html=1;fillColor=#CCCCCC;strokeColor=#6881B3;gradientColor=none;gradientDirection=north;strokeWidth=2;shape=mxgraph.networks.pc;rounded=0;shadow=0;comic=0;" parent="1" vertex="1">
          <mxGeometry x="615.0000000000002" y="795" width="100" height="70" as="geometry" />
        </mxCell>
        <mxCell id="FqAO5_lso4-B0nuIC0QS-33" value="" style="fontColor=#0066CC;verticalAlign=top;verticalLabelPosition=bottom;labelPosition=center;align=center;html=1;fillColor=#CCCCCC;strokeColor=#6881B3;gradientColor=none;gradientDirection=north;strokeWidth=2;shape=mxgraph.networks.pc;rounded=0;shadow=0;comic=0;" parent="1" vertex="1">
          <mxGeometry x="745.0000000000002" y="795" width="100" height="70" as="geometry" />
        </mxCell>
        <mxCell id="FqAO5_lso4-B0nuIC0QS-34" value="" style="fontColor=#0066CC;verticalAlign=top;verticalLabelPosition=bottom;labelPosition=center;align=center;html=1;fillColor=#CCCCCC;strokeColor=#6881B3;gradientColor=none;gradientDirection=north;strokeWidth=2;shape=mxgraph.networks.printer;rounded=0;shadow=0;comic=0;" parent="1" vertex="1">
          <mxGeometry x="875.0000000000002" y="780" width="100" height="100" as="geometry" />
        </mxCell>
        <mxCell id="FqAO5_lso4-B0nuIC0QS-37" style="edgeStyle=none;html=1;labelBackgroundColor=none;endArrow=none;endFill=0;strokeWidth=2;fontFamily=Verdana;fontSize=15;fontColor=#036897;rounded=0;" parent="1" source="FqAO5_lso4-B0nuIC0QS-29" edge="1">
          <mxGeometry relative="1" as="geometry">
            <mxPoint x="775" y="664.3981481481483" as="targetPoint" />
          </mxGeometry>
        </mxCell>
        <mxCell id="FqAO5_lso4-B0nuIC0QS-38" style="edgeStyle=none;html=1;labelBackgroundColor=none;endArrow=none;endFill=0;strokeWidth=2;fontFamily=Verdana;fontSize=15;fontColor=#036897;rounded=0;" parent="1" source="FqAO5_lso4-B0nuIC0QS-31" edge="1">
          <mxGeometry relative="1" as="geometry">
            <mxPoint x="775" y="680.0892857142858" as="targetPoint" />
          </mxGeometry>
        </mxCell>
        <mxCell id="FqAO5_lso4-B0nuIC0QS-39" style="edgeStyle=none;html=1;labelBackgroundColor=none;endArrow=none;endFill=0;strokeWidth=2;fontFamily=Verdana;fontSize=15;fontColor=#036897;rounded=0;" parent="1" source="FqAO5_lso4-B0nuIC0QS-32" edge="1">
          <mxGeometry relative="1" as="geometry">
            <mxPoint x="787.7397260273974" y="690" as="targetPoint" />
          </mxGeometry>
        </mxCell>
        <mxCell id="FqAO5_lso4-B0nuIC0QS-40" style="edgeStyle=none;html=1;labelBackgroundColor=none;endArrow=none;endFill=0;strokeWidth=2;fontFamily=Verdana;fontSize=15;fontColor=#036897;rounded=0;" parent="1" source="FqAO5_lso4-B0nuIC0QS-33" edge="1">
          <mxGeometry relative="1" as="geometry">
            <mxPoint x="818.0136986301368" y="690" as="targetPoint" />
          </mxGeometry>
        </mxCell>
        <mxCell id="FqAO5_lso4-B0nuIC0QS-41" style="edgeStyle=none;html=1;labelBackgroundColor=none;endArrow=none;endFill=0;strokeWidth=2;fontFamily=Verdana;fontSize=15;fontColor=#036897;rounded=0;" parent="1" source="FqAO5_lso4-B0nuIC0QS-34" edge="1">
          <mxGeometry relative="1" as="geometry">
            <mxPoint x="848.2876712328762" y="690" as="targetPoint" />
          </mxGeometry>
        </mxCell>
        <mxCell id="FqAO5_lso4-B0nuIC0QS-44" value="" style="fontColor=#0066CC;verticalAlign=top;verticalLabelPosition=bottom;labelPosition=center;align=center;html=1;fillColor=#CCCCCC;strokeColor=#6881B3;gradientColor=none;gradientDirection=north;strokeWidth=2;shape=mxgraph.networks.pc;rounded=0;shadow=0;comic=0;" parent="1" vertex="1">
          <mxGeometry x="235.00000000000023" y="1399.4117647058824" width="100" height="70" as="geometry" />
        </mxCell>
        <mxCell id="FqAO5_lso4-B0nuIC0QS-45" value="" style="fontColor=#0066CC;verticalAlign=top;verticalLabelPosition=bottom;labelPosition=center;align=center;html=1;fillColor=#CCCCCC;strokeColor=#6881B3;gradientColor=none;gradientDirection=north;strokeWidth=2;shape=mxgraph.networks.pc;rounded=0;shadow=0;comic=0;" parent="1" vertex="1">
          <mxGeometry x="375.0000000000002" y="1399.4117647058824" width="100" height="70" as="geometry" />
        </mxCell>
        <mxCell id="FqAO5_lso4-B0nuIC0QS-46" value="" style="fontColor=#0066CC;verticalAlign=top;verticalLabelPosition=bottom;labelPosition=center;align=center;html=1;fillColor=#CCCCCC;strokeColor=#6881B3;gradientColor=none;gradientDirection=north;strokeWidth=2;shape=mxgraph.networks.pc;rounded=0;shadow=0;comic=0;" parent="1" vertex="1">
          <mxGeometry x="495.0000000000002" y="1399.4117647058824" width="100" height="70" as="geometry" />
        </mxCell>
        <mxCell id="FqAO5_lso4-B0nuIC0QS-47" value="" style="fontColor=#0066CC;verticalAlign=top;verticalLabelPosition=bottom;labelPosition=center;align=center;html=1;fillColor=#CCCCCC;strokeColor=#6881B3;gradientColor=none;gradientDirection=north;strokeWidth=2;shape=mxgraph.networks.pc;rounded=0;shadow=0;comic=0;" parent="1" vertex="1">
          <mxGeometry x="615.0000000000002" y="1399.4117647058824" width="100" height="70" as="geometry" />
        </mxCell>
        <mxCell id="FqAO5_lso4-B0nuIC0QS-48" value="" style="fontColor=#0066CC;verticalAlign=top;verticalLabelPosition=bottom;labelPosition=center;align=center;html=1;fillColor=#CCCCCC;strokeColor=#6881B3;gradientColor=none;gradientDirection=north;strokeWidth=2;shape=mxgraph.networks.pc;rounded=0;shadow=0;comic=0;" parent="1" vertex="1">
          <mxGeometry x="745.0000000000002" y="1399.4117647058824" width="100" height="70" as="geometry" />
        </mxCell>
        <mxCell id="FqAO5_lso4-B0nuIC0QS-49" value="" style="fontColor=#0066CC;verticalAlign=top;verticalLabelPosition=bottom;labelPosition=center;align=center;html=1;fillColor=#CCCCCC;strokeColor=#6881B3;gradientColor=none;gradientDirection=north;strokeWidth=2;shape=mxgraph.networks.printer;rounded=0;shadow=0;comic=0;" parent="1" vertex="1">
          <mxGeometry x="875.0000000000002" y="1384.4117647058824" width="100" height="100" as="geometry" />
        </mxCell>
        <mxCell id="FqAO5_lso4-B0nuIC0QS-51" value="" style="fontColor=#0066CC;verticalAlign=top;verticalLabelPosition=bottom;labelPosition=center;align=center;html=1;fillColor=#CCCCCC;strokeColor=#6881B3;gradientColor=none;gradientDirection=north;strokeWidth=2;shape=mxgraph.networks.wireless_hub;rounded=0;shadow=0;comic=0;" parent="1" vertex="1">
          <mxGeometry x="775.0000000000002" y="1209.4117647058824" width="100" height="85" as="geometry" />
        </mxCell>
        <mxCell id="FqAO5_lso4-B0nuIC0QS-58" value="" style="fontColor=#0066CC;verticalAlign=top;verticalLabelPosition=bottom;labelPosition=center;align=center;html=1;fillColor=#CCCCCC;strokeColor=#6881B3;gradientColor=none;gradientDirection=north;strokeWidth=2;shape=mxgraph.networks.mobile;rounded=0;shadow=0;comic=0;" parent="1" vertex="1">
          <mxGeometry x="392.60000000000025" y="1201.9117647058824" width="50" height="100" as="geometry" />
        </mxCell>
        <mxCell id="FqAO5_lso4-B0nuIC0QS-59" value="&lt;div&gt;&lt;br&gt;&lt;/div&gt;&lt;div&gt;&lt;br&gt;&lt;/div&gt;&lt;div&gt;&lt;font style=&quot;font-size: 49px;&quot;&gt;EZECOM&lt;/font&gt;&lt;/div&gt;&lt;div&gt;&lt;br&gt;&lt;/div&gt;" style="html=1;fillColor=#CCCCCC;strokeColor=#6881B3;gradientColor=none;gradientDirection=north;strokeWidth=2;shape=mxgraph.networks.cloud;fontColor=#6881B3;rounded=0;shadow=0;comic=0;align=center;fontSize=28;fontStyle=1" parent="1" vertex="1">
          <mxGeometry x="2690" y="817.59" width="380" height="185" as="geometry" />
        </mxCell>
        <mxCell id="FqAO5_lso4-B0nuIC0QS-60" style="edgeStyle=none;html=1;labelBackgroundColor=none;endArrow=none;endFill=0;strokeWidth=2;fontFamily=Verdana;fontSize=28;fontColor=#6881B3;rounded=0;" parent="1" source="FqAO5_lso4-B0nuIC0QS-62" target="FqAO5_lso4-B0nuIC0QS-59" edge="1">
          <mxGeometry relative="1" as="geometry" />
        </mxCell>
        <mxCell id="FqAO5_lso4-B0nuIC0QS-62" value="" style="fontColor=#0066CC;verticalAlign=top;verticalLabelPosition=bottom;labelPosition=center;align=center;html=1;fillColor=#CCCCCC;strokeColor=#6881B3;gradientColor=none;gradientDirection=north;strokeWidth=2;shape=mxgraph.networks.router;rounded=0;shadow=0;comic=0;" parent="1" vertex="1">
          <mxGeometry x="2160" y="1080.41" width="285" height="68" as="geometry" />
        </mxCell>
        <mxCell id="FqAO5_lso4-B0nuIC0QS-63" style="edgeStyle=none;html=1;labelBackgroundColor=none;endArrow=none;endFill=0;strokeWidth=2;fontFamily=Verdana;fontSize=28;fontColor=#6881B3;rounded=0;" parent="1" target="FqAO5_lso4-B0nuIC0QS-62" edge="1">
          <mxGeometry relative="1" as="geometry">
            <mxPoint x="2290" y="1300.5448314606745" as="sourcePoint" />
          </mxGeometry>
        </mxCell>
        <mxCell id="FqAO5_lso4-B0nuIC0QS-64" value="" style="fontColor=#0066CC;verticalAlign=top;verticalLabelPosition=bottom;labelPosition=center;align=center;html=1;fillColor=#CCCCCC;strokeColor=#6881B3;gradientColor=none;gradientDirection=north;strokeWidth=2;shape=mxgraph.networks.storage;rounded=0;shadow=0;comic=0;" parent="1" vertex="1">
          <mxGeometry x="2240" y="1298.8200000000002" width="180" height="185.59" as="geometry" />
        </mxCell>
        <mxCell id="FqAO5_lso4-B0nuIC0QS-65" style="edgeStyle=none;html=1;labelBackgroundColor=none;endArrow=none;endFill=0;strokeWidth=2;fontFamily=Verdana;fontSize=28;fontColor=#6881B3;rounded=0;entryX=0.743;entryY=0.833;entryDx=0;entryDy=0;entryPerimeter=0;" parent="1" source="FqAO5_lso4-B0nuIC0QS-66" target="FqAO5_lso4-B0nuIC0QS-106" edge="1">
          <mxGeometry relative="1" as="geometry">
            <mxPoint x="1675" y="1027" as="targetPoint" />
          </mxGeometry>
        </mxCell>
        <mxCell id="FqAO5_lso4-B0nuIC0QS-66" value="" style="fontColor=#0066CC;verticalAlign=top;verticalLabelPosition=bottom;labelPosition=center;align=center;html=1;fillColor=#000000;strokeColor=#6881B3;gradientColor=none;gradientDirection=north;strokeWidth=2;shape=mxgraph.networks.server_storage;rounded=0;shadow=0;comic=0;" parent="1" vertex="1">
          <mxGeometry x="1275" y="620" width="190" height="190" as="geometry" />
        </mxCell>
        <mxCell id="FqAO5_lso4-B0nuIC0QS-67" value="" style="fontColor=#0066CC;verticalAlign=top;verticalLabelPosition=bottom;labelPosition=center;align=center;html=1;fillColor=#CCCCCC;strokeColor=#6881B3;gradientColor=none;gradientDirection=north;strokeWidth=2;shape=mxgraph.networks.pc;rounded=0;shadow=0;comic=0;" parent="1" vertex="1">
          <mxGeometry x="235.00000000000023" y="1870.4117647058824" width="100" height="70" as="geometry" />
        </mxCell>
        <mxCell id="FqAO5_lso4-B0nuIC0QS-68" value="" style="fontColor=#0066CC;verticalAlign=top;verticalLabelPosition=bottom;labelPosition=center;align=center;html=1;fillColor=#CCCCCC;strokeColor=#6881B3;gradientColor=none;gradientDirection=north;strokeWidth=2;shape=mxgraph.networks.pc;rounded=0;shadow=0;comic=0;" parent="1" vertex="1">
          <mxGeometry x="375.0000000000002" y="1870.4117647058824" width="100" height="70" as="geometry" />
        </mxCell>
        <mxCell id="FqAO5_lso4-B0nuIC0QS-69" value="" style="fontColor=#0066CC;verticalAlign=top;verticalLabelPosition=bottom;labelPosition=center;align=center;html=1;fillColor=#CCCCCC;strokeColor=#6881B3;gradientColor=none;gradientDirection=north;strokeWidth=2;shape=mxgraph.networks.pc;rounded=0;shadow=0;comic=0;" parent="1" vertex="1">
          <mxGeometry x="495.0000000000002" y="1870.4117647058824" width="100" height="70" as="geometry" />
        </mxCell>
        <mxCell id="FqAO5_lso4-B0nuIC0QS-70" value="" style="fontColor=#0066CC;verticalAlign=top;verticalLabelPosition=bottom;labelPosition=center;align=center;html=1;fillColor=#CCCCCC;strokeColor=#6881B3;gradientColor=none;gradientDirection=north;strokeWidth=2;shape=mxgraph.networks.pc;rounded=0;shadow=0;comic=0;" parent="1" vertex="1">
          <mxGeometry x="615.0000000000002" y="1870.4117647058824" width="100" height="70" as="geometry" />
        </mxCell>
        <mxCell id="FqAO5_lso4-B0nuIC0QS-71" value="" style="fontColor=#0066CC;verticalAlign=top;verticalLabelPosition=bottom;labelPosition=center;align=center;html=1;fillColor=#CCCCCC;strokeColor=#6881B3;gradientColor=none;gradientDirection=north;strokeWidth=2;shape=mxgraph.networks.pc;rounded=0;shadow=0;comic=0;" parent="1" vertex="1">
          <mxGeometry x="745.0000000000002" y="1870.4117647058824" width="100" height="70" as="geometry" />
        </mxCell>
        <mxCell id="FqAO5_lso4-B0nuIC0QS-72" value="" style="fontColor=#0066CC;verticalAlign=top;verticalLabelPosition=bottom;labelPosition=center;align=center;html=1;fillColor=#CCCCCC;strokeColor=#6881B3;gradientColor=none;gradientDirection=north;strokeWidth=2;shape=mxgraph.networks.printer;rounded=0;shadow=0;comic=0;" parent="1" vertex="1">
          <mxGeometry x="875.0000000000002" y="1855.4117647058824" width="100" height="100" as="geometry" />
        </mxCell>
        <mxCell id="FqAO5_lso4-B0nuIC0QS-74" value="" style="fontColor=#0066CC;verticalAlign=top;verticalLabelPosition=bottom;labelPosition=center;align=center;html=1;fillColor=#CCCCCC;strokeColor=#6881B3;gradientColor=none;gradientDirection=north;strokeWidth=2;shape=mxgraph.networks.wireless_hub;rounded=0;shadow=0;comic=0;" parent="1" vertex="1">
          <mxGeometry x="775.0000000000002" y="1680.4117647058824" width="100" height="85" as="geometry" />
        </mxCell>
        <mxCell id="FqAO5_lso4-B0nuIC0QS-82" value="&lt;div&gt;&lt;font style=&quot;font-size: 46px;&quot;&gt;&lt;br&gt;&lt;/font&gt;&lt;/div&gt;&lt;div&gt;&lt;font style=&quot;font-size: 46px;&quot;&gt;METFONE&lt;/font&gt;&lt;/div&gt;" style="html=1;fillColor=#CCCCCC;strokeColor=#6881B3;gradientColor=none;gradientDirection=north;strokeWidth=2;shape=mxgraph.networks.cloud;fontColor=#6881B3;rounded=0;shadow=0;comic=0;align=center;fontSize=28;fontStyle=1" parent="1" vertex="1">
          <mxGeometry x="2670" y="1156" width="425" height="184" as="geometry" />
        </mxCell>
        <mxCell id="FqAO5_lso4-B0nuIC0QS-103" value="" style="image;points=[];aspect=fixed;html=1;align=center;shadow=0;dashed=0;image=img/lib/allied_telesis/switch/Switch_24_port_L2_POE.svg;" parent="1" vertex="1">
          <mxGeometry x="1660" y="1350.74" width="195" height="133.67" as="geometry" />
        </mxCell>
        <mxCell id="FqAO5_lso4-B0nuIC0QS-104" value="" style="image;points=[];aspect=fixed;html=1;align=center;shadow=0;dashed=0;image=img/lib/allied_telesis/switch/Switch_24_port_L2_POE.svg;" parent="1" vertex="1">
          <mxGeometry x="1685" y="1570" width="195" height="133.67" as="geometry" />
        </mxCell>
        <mxCell id="iUN6AZgAcrI3_vxXC3q3-4" style="edgeStyle=none;rounded=0;orthogonalLoop=1;jettySize=auto;html=1;" parent="1" source="FqAO5_lso4-B0nuIC0QS-105" edge="1">
          <mxGeometry relative="1" as="geometry">
            <mxPoint x="2090" y="1100" as="targetPoint" />
          </mxGeometry>
        </mxCell>
        <mxCell id="FqAO5_lso4-B0nuIC0QS-105" value="" style="image;points=[];aspect=fixed;html=1;align=center;shadow=0;dashed=0;image=img/lib/allied_telesis/switch/Switch_24_port_L2.svg;" parent="1" vertex="1">
          <mxGeometry x="715.0000000000001" y="580" width="175.06" height="120" as="geometry" />
        </mxCell>
        <mxCell id="FqAO5_lso4-B0nuIC0QS-106" value="" style="image;points=[];aspect=fixed;html=1;align=center;shadow=0;dashed=0;image=img/lib/allied_telesis/switch/Switch_24_port_L2.svg;" parent="1" vertex="1">
          <mxGeometry x="1719.96" y="800" width="175.06" height="120" as="geometry" />
        </mxCell>
        <mxCell id="FqAO5_lso4-B0nuIC0QS-108" value="" style="image;points=[];aspect=fixed;html=1;align=center;shadow=0;dashed=0;image=img/lib/allied_telesis/switch/Switch_24_port_L2.svg;" parent="1" vertex="1">
          <mxGeometry x="1724.94" y="600" width="175.06" height="120" as="geometry" />
        </mxCell>
        <mxCell id="FqAO5_lso4-B0nuIC0QS-109" value="" style="image;points=[];aspect=fixed;html=1;align=center;shadow=0;dashed=0;image=img/lib/allied_telesis/switch/Switch_24_port_L2.svg;" parent="1" vertex="1">
          <mxGeometry x="1714.97" y="390" width="175.06" height="120" as="geometry" />
        </mxCell>
        <mxCell id="FqAO5_lso4-B0nuIC0QS-110" value="&lt;font style=&quot;font-size: 47px;&quot;&gt;Cisco SG250-26 Switch 2 PORT1 MIKROTIK&lt;br&gt;&lt;/font&gt;" style="text;strokeColor=none;align=center;fillColor=none;html=1;verticalAlign=middle;whiteSpace=wrap;rounded=0;fontSize=60;" parent="1" vertex="1">
          <mxGeometry x="1417.49" y="290" width="1002.51" height="70" as="geometry" />
        </mxCell>
        <mxCell id="FqAO5_lso4-B0nuIC0QS-111" value="&lt;font style=&quot;font-size: 47px;&quot;&gt;Cisco SG250-26Switch 3 PORT2 MIKROTIK&lt;br&gt;&lt;/font&gt;" style="text;strokeColor=none;align=center;fillColor=none;html=1;verticalAlign=middle;whiteSpace=wrap;rounded=0;fontSize=60;" parent="1" vertex="1">
          <mxGeometry x="1500" y="530" width="985.01" height="70" as="geometry" />
        </mxCell>
        <mxCell id="FqAO5_lso4-B0nuIC0QS-112" value="&lt;font style=&quot;font-size: 47px;&quot;&gt;Cisco SG250-26 Switch 4 PORT3 MIKROTIK&lt;br&gt;&lt;/font&gt;" style="text;strokeColor=none;align=center;fillColor=none;html=1;verticalAlign=middle;whiteSpace=wrap;rounded=0;fontSize=60;" parent="1" vertex="1">
          <mxGeometry x="1510" y="740" width="1030" height="70" as="geometry" />
        </mxCell>
        <mxCell id="FqAO5_lso4-B0nuIC0QS-113" value="&lt;div&gt;&lt;font style=&quot;font-size: 47px;&quot;&gt;Cisco SG250-26Switch LAN PORT6 MIKROTIK&lt;/font&gt;&lt;/div&gt;&lt;div&gt;&lt;font style=&quot;font-size: 47px;&quot;&gt;&lt;br&gt;&lt;/font&gt;&lt;/div&gt;" style="text;strokeColor=none;align=center;fillColor=none;html=1;verticalAlign=middle;whiteSpace=wrap;rounded=0;fontSize=60;" parent="1" vertex="1">
          <mxGeometry x="497.48" y="450" width="655.04" height="170" as="geometry" />
        </mxCell>
        <mxCell id="FqAO5_lso4-B0nuIC0QS-114" value="&lt;font style=&quot;font-size: 47px;&quot;&gt;Switch5 POE POR4 MIKROTIK&lt;br&gt;&lt;/font&gt;" style="text;strokeColor=none;align=center;fillColor=none;html=1;verticalAlign=middle;whiteSpace=wrap;rounded=0;fontSize=60;" parent="1" vertex="1">
          <mxGeometry x="1300" y="1280" width="810" height="70" as="geometry" />
        </mxCell>
        <mxCell id="FqAO5_lso4-B0nuIC0QS-115" value="&lt;font style=&quot;font-size: 47px;&quot;&gt;Switch6 POE PORT 5 MIKROTIK&lt;br&gt;&lt;/font&gt;" style="text;strokeColor=none;align=center;fillColor=none;html=1;verticalAlign=middle;whiteSpace=wrap;rounded=0;fontSize=60;" parent="1" vertex="1">
          <mxGeometry x="1350" y="1715.41" width="820" height="70" as="geometry" />
        </mxCell>
        <mxCell id="FqAO5_lso4-B0nuIC0QS-116" value="" style="endArrow=none;html=1;rounded=0;" parent="1" edge="1">
          <mxGeometry width="50" height="50" relative="1" as="geometry">
            <mxPoint x="1390" y="1160" as="sourcePoint" />
            <mxPoint x="1440" y="1110" as="targetPoint" />
          </mxGeometry>
        </mxCell>
        <mxCell id="FqAO5_lso4-B0nuIC0QS-117" style="edgeStyle=none;rounded=0;orthogonalLoop=1;jettySize=auto;html=1;entryX=1.04;entryY=0.783;entryDx=0;entryDy=0;entryPerimeter=0;" parent="1" target="FqAO5_lso4-B0nuIC0QS-74" edge="1">
          <mxGeometry relative="1" as="geometry">
            <mxPoint x="1740" y="1647.9093631502187" as="sourcePoint" />
            <mxPoint x="930.0000000000002" y="1739.9117647058824" as="targetPoint" />
          </mxGeometry>
        </mxCell>
        <mxCell id="FqAO5_lso4-B0nuIC0QS-118" style="edgeStyle=none;rounded=0;orthogonalLoop=1;jettySize=auto;html=1;entryX=1;entryY=0.7;entryDx=0;entryDy=0;entryPerimeter=0;" parent="1" source="FqAO5_lso4-B0nuIC0QS-103" target="FqAO5_lso4-B0nuIC0QS-51" edge="1">
          <mxGeometry relative="1" as="geometry" />
        </mxCell>
        <mxCell id="FqAO5_lso4-B0nuIC0QS-122" value="" style="html=1;verticalLabelPosition=bottom;align=center;labelBackgroundColor=#1919FF;verticalAlign=top;strokeWidth=2;strokeColor=#0080F0;shadow=0;dashed=0;shape=mxgraph.ios7.icons.wifi;pointerEvents=1;fillColor=#1919FF;" parent="1" vertex="1">
          <mxGeometry x="495" y="1188.41" width="196.82" height="161.59" as="geometry" />
        </mxCell>
        <mxCell id="FqAO5_lso4-B0nuIC0QS-123" value="" style="fontColor=#0066CC;verticalAlign=top;verticalLabelPosition=bottom;labelPosition=center;align=center;html=1;fillColor=#CCCCCC;strokeColor=#6881B3;gradientColor=none;gradientDirection=north;strokeWidth=2;shape=mxgraph.networks.mobile;rounded=0;shadow=0;comic=0;" parent="1" vertex="1">
          <mxGeometry x="402.60000000000025" y="1673.5017647058824" width="50" height="100" as="geometry" />
        </mxCell>
        <mxCell id="FqAO5_lso4-B0nuIC0QS-124" value="" style="html=1;verticalLabelPosition=bottom;align=center;labelBackgroundColor=#1919FF;verticalAlign=top;strokeWidth=2;strokeColor=#0080F0;shadow=0;dashed=0;shape=mxgraph.ios7.icons.wifi;pointerEvents=1;fillColor=#1919FF;" parent="1" vertex="1">
          <mxGeometry x="505" y="1660" width="196.82" height="161.59" as="geometry" />
        </mxCell>
        <mxCell id="Gd0khXwAwxgBQjyGg2rS-1" style="edgeStyle=orthogonalEdgeStyle;rounded=0;orthogonalLoop=1;jettySize=auto;html=1;" edge="1" parent="1" source="FqAO5_lso4-B0nuIC0QS-127" target="FqAO5_lso4-B0nuIC0QS-106">
          <mxGeometry relative="1" as="geometry" />
        </mxCell>
        <mxCell id="FqAO5_lso4-B0nuIC0QS-127" value="" style="fontColor=#0066CC;verticalAlign=top;verticalLabelPosition=bottom;labelPosition=center;align=center;html=1;fillColor=#000000;strokeColor=#6881B3;gradientColor=none;gradientDirection=north;strokeWidth=2;shape=mxgraph.networks.server_storage;rounded=0;shadow=0;comic=0;" parent="1" vertex="1">
          <mxGeometry x="1270" y="865" width="190" height="190" as="geometry" />
        </mxCell>
        <mxCell id="iUN6AZgAcrI3_vxXC3q3-1" style="edgeStyle=none;rounded=0;orthogonalLoop=1;jettySize=auto;html=1;entryX=0.553;entryY=0.303;entryDx=0;entryDy=0;entryPerimeter=0;" parent="1" source="FqAO5_lso4-B0nuIC0QS-109" target="FqAO5_lso4-B0nuIC0QS-11" edge="1">
          <mxGeometry relative="1" as="geometry" />
        </mxCell>
        <mxCell id="iUN6AZgAcrI3_vxXC3q3-14" value="Text" style="edgeLabel;html=1;align=center;verticalAlign=middle;resizable=0;points=[];" parent="iUN6AZgAcrI3_vxXC3q3-1" vertex="1" connectable="0">
          <mxGeometry x="-0.8181" y="-8" relative="1" as="geometry">
            <mxPoint x="-1" y="-1" as="offset" />
          </mxGeometry>
        </mxCell>
        <mxCell id="iUN6AZgAcrI3_vxXC3q3-2" style="edgeStyle=none;rounded=0;orthogonalLoop=1;jettySize=auto;html=1;entryX=0.637;entryY=0.563;entryDx=0;entryDy=0;entryPerimeter=0;" parent="1" source="FqAO5_lso4-B0nuIC0QS-108" target="FqAO5_lso4-B0nuIC0QS-11" edge="1">
          <mxGeometry relative="1" as="geometry" />
        </mxCell>
        <mxCell id="iUN6AZgAcrI3_vxXC3q3-3" style="edgeStyle=none;rounded=0;orthogonalLoop=1;jettySize=auto;html=1;entryX=0.603;entryY=0.663;entryDx=0;entryDy=0;entryPerimeter=0;" parent="1" edge="1">
          <mxGeometry relative="1" as="geometry">
            <mxPoint x="1854.9991588434098" y="894" as="sourcePoint" />
            <mxPoint x="2097.3300000000004" y="1100.3" as="targetPoint" />
          </mxGeometry>
        </mxCell>
        <mxCell id="iUN6AZgAcrI3_vxXC3q3-5" style="edgeStyle=none;rounded=0;orthogonalLoop=1;jettySize=auto;html=1;entryX=0;entryY=1;entryDx=0;entryDy=0;entryPerimeter=0;" parent="1" source="FqAO5_lso4-B0nuIC0QS-103" target="FqAO5_lso4-B0nuIC0QS-11" edge="1">
          <mxGeometry relative="1" as="geometry">
            <Array as="points">
              <mxPoint x="1790" y="1390" />
            </Array>
          </mxGeometry>
        </mxCell>
        <mxCell id="iUN6AZgAcrI3_vxXC3q3-6" style="edgeStyle=none;rounded=0;orthogonalLoop=1;jettySize=auto;html=1;entryX=0.5;entryY=1;entryDx=0;entryDy=0;entryPerimeter=0;" parent="1" target="FqAO5_lso4-B0nuIC0QS-11" edge="1">
          <mxGeometry relative="1" as="geometry">
            <mxPoint x="1788.4036406723499" y="1630" as="sourcePoint" />
            <mxPoint x="2070" y="1220" as="targetPoint" />
          </mxGeometry>
        </mxCell>
        <mxCell id="iUN6AZgAcrI3_vxXC3q3-8" style="edgeStyle=none;rounded=0;orthogonalLoop=1;jettySize=auto;html=1;entryX=0.726;entryY=0.593;entryDx=0;entryDy=0;entryPerimeter=0;" parent="1" source="FqAO5_lso4-B0nuIC0QS-82" target="FqAO5_lso4-B0nuIC0QS-62" edge="1">
          <mxGeometry relative="1" as="geometry" />
        </mxCell>
        <mxCell id="iUN6AZgAcrI3_vxXC3q3-9" style="edgeStyle=none;rounded=0;orthogonalLoop=1;jettySize=auto;html=1;exitX=0.5;exitY=1;exitDx=0;exitDy=0;" parent="1" source="FqAO5_lso4-B0nuIC0QS-114" target="FqAO5_lso4-B0nuIC0QS-114" edge="1">
          <mxGeometry relative="1" as="geometry" />
        </mxCell>
        <mxCell id="iUN6AZgAcrI3_vxXC3q3-10" value="VHP" style="text;strokeColor=none;align=center;fillColor=none;html=1;verticalAlign=middle;whiteSpace=wrap;rounded=0;fontSize=37;fontStyle=1" parent="1" vertex="1">
          <mxGeometry x="1320" y="580" width="60" height="30" as="geometry" />
        </mxCell>
        <mxCell id="iUN6AZgAcrI3_vxXC3q3-11" style="edgeStyle=none;rounded=0;orthogonalLoop=1;jettySize=auto;html=1;exitX=0.5;exitY=0;exitDx=0;exitDy=0;entryX=0.75;entryY=1;entryDx=0;entryDy=0;" parent="1" source="iUN6AZgAcrI3_vxXC3q3-10" target="iUN6AZgAcrI3_vxXC3q3-10" edge="1">
          <mxGeometry relative="1" as="geometry" />
        </mxCell>
        <mxCell id="iUN6AZgAcrI3_vxXC3q3-20" style="edgeStyle=none;rounded=0;orthogonalLoop=1;jettySize=auto;html=1;exitX=0.5;exitY=0;exitDx=0;exitDy=0;" parent="1" source="iUN6AZgAcrI3_vxXC3q3-12" edge="1">
          <mxGeometry relative="1" as="geometry">
            <mxPoint x="1380" y="1086.3333333333335" as="targetPoint" />
          </mxGeometry>
        </mxCell>
        <mxCell id="iUN6AZgAcrI3_vxXC3q3-12" value="&lt;div&gt;VM&#39;S&lt;/div&gt;&lt;div&gt;&lt;br&gt;&lt;/div&gt;" style="text;strokeColor=none;align=center;fillColor=none;html=1;verticalAlign=middle;whiteSpace=wrap;rounded=0;fontSize=37;fontStyle=1" parent="1" vertex="1">
          <mxGeometry x="1310" y="1080.41" width="60" height="30" as="geometry" />
        </mxCell>
        <mxCell id="iUN6AZgAcrI3_vxXC3q3-13" style="edgeStyle=none;rounded=0;orthogonalLoop=1;jettySize=auto;html=1;exitX=0.25;exitY=0;exitDx=0;exitDy=0;entryX=0.25;entryY=1;entryDx=0;entryDy=0;" parent="1" source="iUN6AZgAcrI3_vxXC3q3-12" target="iUN6AZgAcrI3_vxXC3q3-12" edge="1">
          <mxGeometry relative="1" as="geometry" />
        </mxCell>
        <mxCell id="iUN6AZgAcrI3_vxXC3q3-15" value="&lt;div&gt;DATA CENTER / NAS PORT 10 MIKROTIK&lt;/div&gt;&lt;div&gt;&lt;br&gt;&lt;/div&gt;" style="text;strokeColor=none;align=center;fillColor=none;html=1;verticalAlign=middle;whiteSpace=wrap;rounded=0;fontSize=60;" parent="1" vertex="1">
          <mxGeometry x="2070" y="1600" width="540" height="30" as="geometry" />
        </mxCell>
        <mxCell id="iUN6AZgAcrI3_vxXC3q3-16" value="&lt;div&gt;PORT 12 MIKROTIK&lt;/div&gt;&lt;div&gt;&lt;br&gt;&lt;/div&gt;" style="text;strokeColor=none;align=center;fillColor=none;html=1;verticalAlign=middle;whiteSpace=wrap;rounded=0;fontSize=60;" parent="1" vertex="1">
          <mxGeometry x="2610" y="760" width="540" height="30" as="geometry" />
        </mxCell>
        <mxCell id="iUN6AZgAcrI3_vxXC3q3-17" value="&lt;div&gt;PORT 11 MIKROTIK&lt;/div&gt;&lt;div&gt;&lt;br&gt;&lt;/div&gt;" style="text;strokeColor=none;align=center;fillColor=none;html=1;verticalAlign=middle;whiteSpace=wrap;rounded=0;fontSize=60;" parent="1" vertex="1">
          <mxGeometry x="2650" y="1454.4099999999999" width="540" height="30" as="geometry" />
        </mxCell>
        <mxCell id="iUN6AZgAcrI3_vxXC3q3-19" value="" style="edgeStyle=none;rounded=0;orthogonalLoop=1;jettySize=auto;html=1;" parent="1" source="iUN6AZgAcrI3_vxXC3q3-18" target="FqAO5_lso4-B0nuIC0QS-70" edge="1">
          <mxGeometry relative="1" as="geometry" />
        </mxCell>
        <mxCell id="iUN6AZgAcrI3_vxXC3q3-18" value="&lt;div&gt;&lt;b&gt;SSID &lt;br&gt;&lt;/b&gt;&lt;/div&gt;&lt;div&gt;&lt;b&gt;THE BALE PHNOM PENH&lt;/b&gt;&lt;/div&gt;&lt;div&gt;&lt;b&gt;BALE STAFF&lt;br&gt;&lt;/b&gt;&lt;/div&gt;" style="text;strokeColor=none;align=center;fillColor=none;html=1;verticalAlign=middle;whiteSpace=wrap;rounded=0;fontSize=55;" parent="1" vertex="1">
          <mxGeometry x="80" y="2050" width="1080" height="30" as="geometry" />
        </mxCell>
      </root>
    </mxGraphModel>
  </diagram>
</mxfile>
